<svg xmlns="http://www.w3.org/2000/svg" width="18.0" height="18.0" viewBox="0.0 0.0 18.0 18.0" fill="none">
<path d="M8.59277 1.71484C8.37196 2.06797 8.1942 2.45118 8.06934 2.85742H4.42871C3.16637 2.85753 2.14281 3.88124 2.14258 5.14355V13.1455C2.14295 14.4077 3.16646 15.4306 4.42871 15.4307H12.4307C13.6928 15.4304 14.7154 14.4076 14.7158 13.1455V8.71191C15.1317 8.5235 15.516 8.27856 15.8594 7.98633V13.1455C15.859 15.0389 14.3241 16.574 12.4307 16.5742H4.42871C2.53517 16.5741 1.00037 15.039 1 13.1455V5.14355C1.00023 3.24995 2.53508 1.71495 4.42871 1.71484H8.59277ZM12.5 0C12.5944 2.17098e-07 12.6762 0.0646849 12.6992 0.15625C12.7698 0.436127 12.8621 0.709036 12.9766 0.974609C13.275 1.668 13.6851 2.27494 14.2051 2.79492C14.7253 3.3149 15.332 3.72495 16.0254 4.02344C16.2912 4.13792 16.5639 4.23023 16.8438 4.30078C16.9353 4.3238 17 4.40562 17 4.5C17 4.59438 16.9353 4.6762 16.8438 4.69922C16.5639 4.76977 16.291 4.86208 16.0254 4.97656C15.332 5.27504 14.7251 5.6851 14.2051 6.20508C13.6851 6.72531 13.275 7.332 12.9766 8.02539C12.8621 8.29122 12.7698 8.56387 12.6992 8.84375C12.6762 8.93532 12.5944 9 12.5 9C12.4056 9 12.3238 8.93532 12.3008 8.84375C12.2302 8.56387 12.1379 8.29096 12.0234 8.02539C11.725 7.332 11.3152 6.72506 10.7949 6.20508C10.2747 5.6851 9.668 5.27504 8.97461 4.97656C8.70878 4.86208 8.43613 4.76977 8.15625 4.69922C8.06468 4.6762 8 4.59438 8 4.5C8 4.40562 8.06468 4.3238 8.15625 4.30078C8.43613 4.23023 8.70904 4.13792 8.97461 4.02344C9.668 3.72495 10.2749 3.3149 10.7949 2.79492C11.3149 2.27494 11.725 1.668 12.0234 0.974609C12.1379 0.708781 12.2302 0.436127 12.3008 0.15625C12.3238 0.0646847 12.4056 0 12.5 0Z" fill="#5F6368" />
</svg>