<svg xmlns="http://www.w3.org/2000/svg" width="24" height="24" viewBox="0.0 0.0 24.0 24.0" fill="none">
<path d="M12.001 2.00317C14.7155 2.00317 15.0561 2.01508 16.1221 2.06372C17.186 2.11228 17.913 2.28052 18.5488 2.52759C19.2061 2.78302 19.7637 3.12531 20.3193 3.68091C20.875 4.23658 21.2172 4.79416 21.4727 5.45142C21.7198 6.08729 21.8889 6.81419 21.9375 7.87817C21.9862 8.9444 21.998 9.28524 21.998 12.0002C21.998 14.7147 21.9861 15.0554 21.9375 16.1213C21.8889 17.1853 21.7198 17.9122 21.4727 18.5481C21.2172 19.2055 20.8751 19.7629 20.3193 20.3186C19.7636 20.8744 19.2062 21.2164 18.5488 21.4719C17.913 21.719 17.1861 21.8882 16.1221 21.9368C15.0561 21.9854 14.7155 21.9973 12.001 21.9973C9.28598 21.9973 8.94518 21.9854 7.87891 21.9368C6.8149 21.8882 6.08803 21.7191 5.45215 21.4719C4.79488 21.2165 4.23732 20.8743 3.68164 20.3186C3.12604 19.7629 2.78376 19.2053 2.52832 18.5481C2.28126 17.9123 2.11302 17.1852 2.06445 16.1213C2.01582 15.0554 2.00391 14.7148 2.00391 12.0002C2.00391 9.28524 2.0158 8.9444 2.06445 7.87817C2.11304 6.81421 2.28119 6.08729 2.52832 5.45142C2.78379 4.79409 3.12592 4.23663 3.68164 3.68091C4.23737 3.12519 4.79481 2.78306 5.45215 2.52759C6.08803 2.28046 6.81491 2.1123 7.87891 2.06372C8.94518 2.01507 9.28598 2.00317 12.001 2.00317ZM12.001 3.80493C9.33169 3.80493 9.0151 3.81445 7.96094 3.86255C6.98641 3.90705 6.45673 4.07042 6.10449 4.20728C5.63812 4.38858 5.30475 4.60468 4.95508 4.95435C4.6054 5.30403 4.38928 5.63742 4.20801 6.10376C4.07112 6.45603 3.90778 6.98569 3.86328 7.96021C3.81519 9.01433 3.80469 9.33096 3.80469 12.0002C3.80469 14.6691 3.8152 14.9854 3.86328 16.0393C3.90776 17.0139 4.0711 17.5435 4.20801 17.8958C4.38927 18.3622 4.60543 18.6955 4.95508 19.0452C5.3048 19.3949 5.63804 19.6119 6.10449 19.7932C6.45672 19.9301 6.98641 20.0925 7.96094 20.137C9.01491 20.1851 9.33153 20.1956 12.001 20.1956C14.67 20.1956 14.9863 20.185 16.04 20.137C17.0146 20.0925 17.5442 19.9301 17.8965 19.7932C18.3631 19.6119 18.6961 19.395 19.0459 19.0452C19.3957 18.6954 19.6126 18.3623 19.7939 17.8958C19.9308 17.5435 20.0932 17.0138 20.1377 16.0393C20.1858 14.9854 20.1963 14.6691 20.1963 12.0002C20.1963 9.33096 20.1858 9.01437 20.1377 7.96021C20.0932 6.98572 19.9308 6.45603 19.7939 6.10376C19.6127 5.63734 19.3956 5.30407 19.0459 4.95435C18.6962 4.6047 18.3629 4.38858 17.8965 4.20728C17.5442 4.07041 17.0147 3.90703 16.04 3.86255C14.9862 3.81447 14.6698 3.80493 12.001 3.80493ZM12.001 6.86646C14.836 6.86659 17.1338 9.16517 17.1338 12.0002C17.1336 14.8352 14.8359 17.1329 12.001 17.1331C9.1659 17.1331 6.86733 14.8353 6.86719 12.0002C6.86719 9.16509 9.16582 6.86646 12.001 6.86646ZM12.001 8.66724C10.1606 8.66724 8.66797 10.1599 8.66797 12.0002C8.66811 13.8405 10.1607 15.3323 12.001 15.3323C13.8411 15.3321 15.3329 13.8404 15.333 12.0002C15.333 10.16 13.8412 8.66738 12.001 8.66724ZM17.3369 5.46411C17.9993 5.46411 18.5369 6.00097 18.5371 6.66333C18.5371 7.32587 17.9995 7.86353 17.3369 7.86353C16.6745 7.86343 16.1377 7.32581 16.1377 6.66333C16.1379 6.00103 16.6746 5.46421 17.3369 5.46411Z" fill="white" />
</svg>