<svg xmlns="http://www.w3.org/2000/svg" width="24" height="24" viewBox="0.0 0.0 24.0 24.0" fill="none">
<path fill-rule="evenodd" clip-rule="evenodd" d="M19.3248 19.0422H16.3116V14.4011C16.3116 13.2944 16.2902 11.8706 14.7444 11.8706C13.1748 11.8706 12.9353 13.0756 12.9353 14.3211V19.0422H9.92336V9.49833H12.8139V10.8022H12.8557C13.2578 10.0517 14.2423 9.26056 15.709 9.26056C18.7605 9.26056 19.3248 11.2367 19.3248 13.8072V19.0422ZM6.52336 8.19278C5.55419 8.19278 4.77365 7.42222 4.77365 6.47278C4.77365 5.52444 5.55419 4.75333 6.52336 4.75333C7.48801 4.75333 8.27136 5.52444 8.27136 6.47278C8.27136 7.42222 7.48801 8.19278 6.52336 8.19278ZM5.01312 9.49833H8.03189V19.0422H5.01312V9.49833ZM20.5184 2H3.47496C2.66109 2 2 2.64556 2 3.44111V20.5567C2 21.3533 2.66109 22 3.47496 22H20.5184C21.3339 22 22 21.3533 22 20.5567V3.44111C22 2.64556 21.3339 2 20.5184 2Z" fill="white" />
</svg>