<svg xmlns="http://www.w3.org/2000/svg" width="18.0" height="18.0" viewBox="0.0 0.0 18.0 18.0" fill="none">
<path d="M9.62207 4.02246H3.08887V14.9111H13.9775V8.37793H15.0664V14.9111C15.0664 15.2013 14.9578 15.4552 14.7402 15.6729C14.5225 15.8906 14.2679 16 13.9775 16H3.08887C2.79851 16 2.54492 15.8906 2.32715 15.6729C2.10938 15.4551 2.00001 15.2015 2 14.9111V4.02246C2 3.73209 2.10937 3.47754 2.32715 3.25977C2.54484 3.04223 2.79866 2.9336 3.08887 2.93359H9.62207V4.02246ZM12.9795 13.1504H4.10547L6.22852 10.3926L7.91602 12.6973L10.3115 9.59375L12.9795 13.1504ZM12.5781 2C12.6496 2.00015 12.7119 2.04888 12.7295 2.11816C12.7832 2.33108 12.8533 2.53918 12.9404 2.74121C13.1674 3.26853 13.4786 3.73054 13.874 4.12598C14.2697 4.52142 14.7315 4.83258 15.2588 5.05957C15.461 5.14668 15.6689 5.21684 15.8818 5.27051C15.9511 5.28814 15.9998 5.3504 16 5.42188C16 5.49352 15.9513 5.55658 15.8818 5.57422C15.6689 5.6279 15.4609 5.69803 15.2588 5.78516C14.7315 6.01215 14.2695 6.32331 13.874 6.71875C13.4788 7.11425 13.1674 7.57545 12.9404 8.10254C12.8533 8.30477 12.7832 8.51266 12.7295 8.72559C12.712 8.79511 12.6498 8.84458 12.5781 8.84473C12.5064 8.84473 12.4433 8.79522 12.4258 8.72559C12.3721 8.51269 12.3019 8.30455 12.2148 8.10254C11.9879 7.57543 11.6768 7.11406 11.2812 6.71875C10.8857 6.32343 10.4246 6.01213 9.89746 5.78516C9.69525 5.69805 9.48732 5.6279 9.27441 5.57422C9.20478 5.55671 9.15527 5.49365 9.15527 5.42188C9.15543 5.35025 9.20489 5.28799 9.27441 5.27051C9.48734 5.21683 9.69542 5.14669 9.89746 5.05957C10.4246 4.83262 10.8859 4.52125 11.2812 4.12598C11.6767 3.73054 11.9878 3.26853 12.2148 2.74121C12.302 2.53895 12.3721 2.33112 12.4258 2.11816C12.4434 2.04874 12.5065 2 12.5781 2Z" fill="white" />
</svg>