<svg xmlns="http://www.w3.org/2000/svg" width="18.0" height="18.0" viewBox="0.0 0.0 18.0 18.0" fill="none">
<path d="M13.9463 9.74707L2 16.4668V3.00781L13.9463 9.74707ZM3.12012 14.5439L11.6689 9.74707L3.12012 4.93066V14.5439ZM12.7998 1C12.8669 1 12.925 1.04622 12.9414 1.11133C12.9916 1.31036 13.0572 1.5045 13.1387 1.69336C13.3509 2.18644 13.6429 2.61754 14.0127 2.9873C14.3826 3.35707 14.8136 3.64907 15.3066 3.86133C15.4957 3.94276 15.6896 4.00841 15.8887 4.05859C15.9538 4.07496 16 4.13308 16 4.2002C15.9999 4.26723 15.9537 4.32544 15.8887 4.3418C15.6896 4.39198 15.4955 4.45763 15.3066 4.53906C14.8137 4.75126 14.3824 5.0425 14.0127 5.41211C13.6429 5.78205 13.3509 6.21395 13.1387 6.70703C13.0573 6.89605 12.9916 7.09005 12.9414 7.28906C12.925 7.35411 12.8669 7.40039 12.7998 7.40039C12.7328 7.4003 12.6746 7.3541 12.6582 7.28906C12.608 7.09 12.5424 6.89591 12.4609 6.70703C12.2487 6.21395 11.9578 5.78187 11.5879 5.41211C11.2179 5.04235 10.786 4.75132 10.293 4.53906C10.1039 4.45764 9.91 4.39197 9.71094 4.3418C9.6459 4.32543 9.5997 4.26722 9.59961 4.2002C9.59961 4.13312 9.64589 4.075 9.71094 4.05859C9.90995 4.00843 10.1041 3.94272 10.293 3.86133C10.786 3.64907 11.2181 3.35707 11.5879 2.9873C11.9575 2.61762 12.2487 2.18629 12.4609 1.69336C12.5424 1.50431 12.608 1.31037 12.6582 1.11133C12.6746 1.04628 12.7328 1.00009 12.7998 1Z" fill="white" />
</svg>