<svg xmlns="http://www.w3.org/2000/svg" width="18.0" height="18.0" viewBox="0.0 0.0 18.0 18.0" fill="none">
<g clip-path="url(#clip0_4005_577)">
<path d="M8.98125 3.6375C10.4188 3.6375 11.7438 3.95 12.9563 4.575C14.1688 5.1875 15.0688 6.0125 15.6563 7.05C15.7188 7.1375 15.7313 7.24375 15.6938 7.36875C15.6563 7.49375 15.5875 7.58125 15.4875 7.63125C15.3625 7.68125 15.25 7.6875 15.15 7.65C15.05 7.6125 14.975 7.54375 14.925 7.44375C14.3875 6.54375 13.5813 5.83125 12.5063 5.30625C11.4438 4.76875 10.2688 4.5 8.98125 4.5C7.70625 4.5 6.53125 4.76875 5.45625 5.30625C4.39375 5.83125 3.6 6.54375 3.075 7.44375C3.0125 7.55625 2.925 7.625 2.8125 7.65C2.7125 7.675 2.60625 7.6625 2.49375 7.6125C2.40625 7.55 2.34375 7.4625 2.30625 7.35C2.26875 7.2375 2.275 7.1375 2.325 7.05C2.9375 6.025 3.84375 5.2 5.04375 4.575C6.24375 3.95 7.55625 3.6375 8.98125 3.6375ZM8.98125 5.45625C10.5688 5.45625 11.9188 6.025 13.0313 7.1625C14.1438 8.2875 14.7 9.65 14.7 11.25C14.7 11.875 14.4875 12.4062 14.0625 12.8437C13.65 13.2812 13.1375 13.5 12.525 13.5C11.9125 13.5 11.3938 13.2812 10.9688 12.8437C10.5438 12.4062 10.3313 11.875 10.3313 11.25C10.3313 10.875 10.2 10.5562 9.9375 10.2937C9.6875 10.0312 9.38125 9.9 9.01875 9.9C8.65625 9.9 8.3375 10.0312 8.0625 10.2937C7.8 10.5562 7.66875 10.875 7.66875 11.25C7.66875 12.6125 8.0375 13.6437 8.775 14.3437C9.5125 15.0437 10.3375 15.3937 11.25 15.3937C11.3625 15.3937 11.4625 15.4375 11.55 15.525C11.65 15.6 11.7 15.6937 11.7 15.8062C11.7 15.9312 11.6563 16.0375 11.5688 16.125C11.4813 16.2125 11.375 16.25 11.25 16.2375C10.1375 16.25 9.11875 15.8312 8.19375 14.9812C7.28125 14.1187 6.825 12.875 6.825 11.25C6.825 10.6375 7.03125 10.1187 7.44375 9.69375C7.86875 9.25625 8.3875 9.0375 9 9.0375C9.6125 9.0375 10.1313 9.25625 10.5563 9.69375C10.9813 10.1187 11.1938 10.6375 11.1938 11.25C11.1938 11.6375 11.3188 11.9687 11.5688 12.2437C11.8313 12.5062 12.1438 12.6375 12.5063 12.6375C12.8688 12.6375 13.1813 12.5062 13.4438 12.2437C13.7188 11.9687 13.8563 11.6375 13.8563 11.25C13.8563 9.9 13.3813 8.74375 12.4313 7.78125C11.4813 6.80625 10.3313 6.31875 8.98125 6.31875C7.63125 6.31875 6.48125 6.8 5.53125 7.7625C4.59375 8.725 4.125 9.89375 4.125 11.2687C4.125 11.6937 4.1625 12.0812 4.2375 12.4312C4.325 12.7812 4.425 13.0875 4.5375 13.35C4.6 13.4625 4.6125 13.575 4.575 13.6875C4.5375 13.7875 4.46875 13.8687 4.36875 13.9312C4.25625 13.9812 4.14375 13.9875 4.03125 13.95C3.91875 13.9 3.8375 13.8187 3.7875 13.7062C3.6125 13.3062 3.48125 12.9062 3.39375 12.5062C3.31875 12.0937 3.28125 11.675 3.28125 11.25C3.28125 9.65 3.83125 8.2875 4.93125 7.1625C6.04375 6.025 7.39375 5.45625 8.98125 5.45625ZM9 1.85625C9.8625 1.85625 10.6938 1.9625 11.4938 2.175C12.2938 2.3875 13.0313 2.7 13.7063 3.1125C13.8063 3.1625 13.8688 3.25 13.8938 3.375C13.9188 3.4875 13.9 3.59375 13.8375 3.69375C13.775 3.79375 13.6813 3.85625 13.5563 3.88125C13.4438 3.90625 13.3375 3.89375 13.2375 3.84375C12.65 3.45625 11.9875 3.175 11.25 3C10.5125 2.825 9.7625 2.7375 9 2.7375C8.225 2.7375 7.46875 2.8375 6.73125 3.0375C5.99375 3.225 5.31875 3.49375 4.70625 3.84375C4.60625 3.89375 4.5 3.90625 4.3875 3.88125C4.275 3.85625 4.19375 3.79375 4.14375 3.69375C4.08125 3.59375 4.0625 3.4875 4.0875 3.375C4.1125 3.25 4.175 3.1625 4.275 3.1125C4.95 2.6875 5.6875 2.375 6.4875 2.175C7.2875 1.9625 8.125 1.85625 9 1.85625ZM9 7.25625C9.9375 7.25625 10.7563 7.58125 11.4563 8.23125C12.1688 8.86875 12.6313 9.69375 12.8438 10.7062C12.8688 10.8312 12.85 10.9437 12.7875 11.0437C12.725 11.1437 12.6313 11.2062 12.5063 11.2312C12.3938 11.2562 12.2875 11.2375 12.1875 11.175C12.0875 11.1125 12.025 11.0187 12 10.8937C11.825 10.0812 11.4625 9.4125 10.9125 8.8875C10.3625 8.3625 9.725 8.1 9 8.1C8.15 8.1 7.41875 8.45625 6.80625 9.16875C6.20625 9.86875 5.90625 10.7125 5.90625 11.7C5.90625 12.35 6.0375 13.0062 6.3 13.6687C6.575 14.3312 6.9625 14.8562 7.4625 15.2437C7.5625 15.3187 7.61875 15.4187 7.63125 15.5437C7.64375 15.6562 7.625 15.7625 7.575 15.8625C7.5 15.9625 7.4 16.0187 7.275 16.0312C7.15 16.0312 7.0375 16 6.9375 15.9375C6.3375 15.4625 5.86875 14.8312 5.53125 14.0437C5.20625 13.2562 5.04375 12.475 5.04375 11.7C5.04375 10.475 5.425 9.43125 6.1875 8.56875C6.9625 7.69375 7.9 7.25625 9 7.25625ZM9 10.8375C9.1125 10.8375 9.2125 10.8812 9.3 10.9687C9.3875 11.0437 9.43125 11.1375 9.43125 11.25C9.43125 12.225 9.75 12.9562 10.3875 13.4437C11.0375 13.9312 11.775 14.175 12.6 14.175C12.7875 14.175 12.9438 14.1625 13.0688 14.1375C13.1938 14.1125 13.3188 14.0875 13.4438 14.0625C13.5438 14.05 13.6375 14.075 13.725 14.1375C13.825 14.2 13.8875 14.2875 13.9125 14.4C13.925 14.5125 13.9 14.6187 13.8375 14.7187C13.7875 14.8187 13.7 14.8812 13.575 14.9062C13.475 14.9187 13.35 14.9437 13.2 14.9812C13.05 15.0187 12.85 15.0375 12.6 15.0375C11.4 15.0375 10.425 14.6812 9.675 13.9687C8.9375 13.2437 8.56875 12.3375 8.56875 11.25C8.56875 11.1375 8.60625 11.0437 8.68125 10.9687C8.76875 10.8812 8.875 10.8375 9 10.8375Z" fill="white" />
</g>
<defs>
<clipPath id="clip0_4005_577">
<rect width="18" height="18" fill="white" />
</clipPath>
</defs>
</svg>