<svg xmlns="http://www.w3.org/2000/svg" width="24" height="24" viewBox="0.0 0.0 24.0 24.0" fill="none">
<path fill-rule="evenodd" clip-rule="evenodd" d="M23.74 7.6062C23.74 7.6062 23.51 5.9562 22.79 5.2362C21.88 4.2762 20.86 4.2762 20.39 4.2162C17.04 3.9712 12 4.0012 12 4.0012C12 4.0012 6.98 3.9712 3.63 4.2112C3.17 4.2712 2.15 4.2712 1.24 5.2312C0.52 5.9512 0.28 7.6012 0.28 7.6012C0.28 7.6012 0.04 9.5462 0 11.4812V13.5062C0.04 15.4462 0.28 17.3812 0.28 17.3812C0.28 17.3812 0.52 19.0312 1.24 19.7612C2.15 20.7112 3.34 20.6812 3.88 20.7812C5.76 20.9612 11.79 21.0012 12 21.0012C12 21.0012 17.05 21.0112 20.4 20.7712C20.86 20.7112 21.88 20.7112 22.79 19.7512C23.51 19.0312 23.75 17.3812 23.75 17.3812C23.75 17.3812 23.99 15.4412 24 13.5062V11.4812C23.98 9.5462 23.74 7.6062 23.74 7.6062ZM9.57 16.0012V8.9912L16 12.6312L9.57 16.0012Z" fill="white" />
</svg>