<svg xmlns="http://www.w3.org/2000/svg" width="18.0" height="18.0" viewBox="0.0 0.0 18.0 18.0" fill="none">
<g clip-path="url(#clip0_4005_573)">
<path d="M4.36875 16.8375V16.2187C4.36875 14.5187 4.70625 13.1687 5.38125 12.1687C6.06875 11.1687 7.00625 10.1125 8.19375 9C7.00625 7.8875 6.06875 6.83125 5.38125 5.83125C4.69375 4.83125 4.35 3.48125 4.35 1.78125V1.1625H5.45625V1.78125C5.45625 1.90625 5.45625 2.0375 5.45625 2.175C5.45625 2.3 5.46875 2.41875 5.49375 2.53125H12.4875C12.5125 2.41875 12.525 2.3 12.525 2.175C12.5375 2.0375 12.5438 1.90625 12.5438 1.78125V1.1625H13.6313V1.78125C13.6313 3.48125 13.2875 4.83125 12.6 5.83125C11.925 6.83125 10.9938 7.8875 9.80625 9C10.9938 10.1 11.925 11.1562 12.6 12.1687C13.2875 13.1687 13.6313 14.5187 13.6313 16.2187V16.8375H12.5438V16.2187C12.5438 16.0937 12.5375 15.9687 12.525 15.8437C12.525 15.7062 12.5125 15.5812 12.4875 15.4688H5.5125C5.4875 15.5812 5.46875 15.7062 5.45625 15.8437C5.45625 15.9687 5.45625 16.0937 5.45625 16.2187V16.8375H4.36875ZM6.28125 5.175H11.7C11.85 4.9375 11.9813 4.69375 12.0938 4.44375C12.2063 4.18125 12.2938 3.90625 12.3563 3.61875H5.64375C5.70625 3.91875 5.7875 4.19375 5.8875 4.44375C6 4.69375 6.13125 4.9375 6.28125 5.175ZM9 8.25C9.3875 7.9 9.74375 7.5625 10.0688 7.2375C10.4063 6.9125 10.7188 6.5875 11.0063 6.2625H6.99375C7.26875 6.5875 7.56875 6.9125 7.89375 7.2375C8.23125 7.5625 8.6 7.9 9 8.25ZM6.99375 11.7375H11.0063C10.7188 11.4125 10.4063 11.0875 10.0688 10.7625C9.74375 10.4375 9.3875 10.1 9 9.75C8.6 10.1 8.2375 10.4375 7.9125 10.7625C7.5875 11.0875 7.28125 11.4125 6.99375 11.7375ZM5.64375 14.3812H12.3563C12.2938 14.0812 12.2 13.8062 12.075 13.5562C11.9625 13.3062 11.8313 13.0625 11.6813 12.825H6.3C6.15 13.0625 6.01875 13.3125 5.90625 13.575C5.79375 13.825 5.70625 14.0937 5.64375 14.3812Z" fill="white" />
</g>
<defs>
<clipPath id="clip0_4005_573">
<rect width="18" height="18" fill="white" />
</clipPath>
</defs>
</svg>