<svg xmlns="http://www.w3.org/2000/svg" width="18.0" height="18.0" viewBox="0.0 0.0 18.0 18.0" fill="none">
<path d="M8.26757 16.9883H7.17675V3.90723H8.26757V16.9883ZM11.3379 14.0811H10.2471V6.81348H11.3379V14.0811ZM5.16015 12.6279H4.0703V8.26758H5.16015V12.6279ZM13.8994 11.9004H12.8096V8.99414H13.8994V11.9004ZM2.08984 10.9922H0.999992V9.90234H2.08984V10.9922ZM13.7959 1C13.861 1.0002 13.9177 1.04517 13.9336 1.1084C13.9824 1.30204 14.0458 1.49106 14.125 1.6748C14.3316 2.15471 14.6157 2.57468 14.9756 2.93457C15.3356 3.29441 15.7555 3.57761 16.2353 3.78418C16.4194 3.86346 16.608 3.92771 16.8018 3.97656C16.865 3.99247 16.91 4.04904 16.9101 4.11426C16.9101 4.17958 16.8651 4.237 16.8018 4.25293C16.6081 4.30176 16.4191 4.36511 16.2353 4.44434C15.7556 4.65086 15.3354 4.93422 14.9756 5.29395C14.6157 5.65401 14.3316 6.07478 14.125 6.55469C14.0458 6.73862 13.9824 6.92744 13.9336 7.12109C13.9177 7.18431 13.861 7.22929 13.7959 7.22949C13.7306 7.22949 13.6732 7.18447 13.6572 7.12109C13.6084 6.92743 13.545 6.73845 13.4658 6.55469C13.2592 6.07478 12.9753 5.65383 12.6152 5.29395C12.2552 4.93424 11.8352 4.65085 11.3555 4.44434C11.1715 4.36512 10.9827 4.30176 10.7891 4.25293C10.7257 4.237 10.6807 4.17958 10.6807 4.11426C10.6808 4.04904 10.7258 3.99247 10.7891 3.97656C10.9828 3.92772 11.1716 3.86345 11.3555 3.78418C11.8353 3.57762 12.2554 3.29439 12.6152 2.93457C12.9751 2.57468 13.2592 2.15471 13.4658 1.6748C13.545 1.49088 13.6084 1.30204 13.6572 1.1084C13.6732 1.04502 13.7306 1 13.7959 1Z" fill="white" />
</svg>