<svg xmlns="http://www.w3.org/2000/svg" width="18.0" height="18.0" viewBox="0.0 0.0 18.0 18.0" fill="none">
<path d="M9.02734 3.82422C9.52957 4.99088 10.2212 6.0181 11.1016 6.89844C11.8721 7.66862 12.7549 8.29441 13.7451 8.77539L14.1758 8.97266C14.1977 8.98208 14.2203 8.98978 14.2422 8.99902L14.1758 9.02734C13.0091 9.52957 11.9819 10.2212 11.1016 11.1016C10.3314 11.8721 9.70559 12.7549 9.22461 13.7451L9.02734 14.1758C9.01787 14.1978 9.00929 14.2201 9 14.2422L8.97266 14.1758C8.47052 13.0093 7.77932 11.982 6.89844 11.1016C6.12787 10.3314 5.24513 9.70559 4.25488 9.22461L3.82422 9.02734C3.80195 9.01775 3.77916 9.00941 3.75684 9L3.82422 8.97266C4.99088 8.47043 6.0181 7.77877 6.89844 6.89844C7.66878 6.12809 8.29444 5.24514 8.77539 4.25488L8.97266 3.82422C8.9822 3.80206 8.98966 3.77905 8.99902 3.75684L9.02734 3.82422Z" stroke="white" stroke-width="1.55556" />
</svg>