<svg xmlns="http://www.w3.org/2000/svg" width="18.0" height="18.0" viewBox="0.0 0.0 18.0 18.0" fill="none">
<g clip-path="url(#clip0_4005_575)">
<path d="M9 11.9062C8.1875 11.9062 7.5 11.625 6.9375 11.0625C6.375 10.5 6.09375 9.8125 6.09375 9C6.09375 8.1875 6.375 7.5 6.9375 6.9375C7.5 6.375 8.1875 6.09375 9 6.09375C9.8125 6.09375 10.5 6.375 11.0625 6.9375C11.625 7.5 11.9063 8.1875 11.9063 9C11.9063 9.8125 11.625 10.5 11.0625 11.0625C10.5 11.625 9.8125 11.9062 9 11.9062ZM9 10.8C9.5 10.8 9.925 10.625 10.275 10.275C10.6375 9.925 10.8188 9.5 10.8188 9C10.8188 8.5 10.6375 8.075 10.275 7.725C9.925 7.3625 9.5 7.18125 9 7.18125C8.5 7.18125 8.075 7.3625 7.725 7.725C7.375 8.075 7.2 8.5 7.2 9C7.2 9.5 7.375 9.925 7.725 10.275C8.075 10.625 8.5 10.8 9 10.8ZM13.0125 16.0125C13.1375 15.6375 13.25 15.2062 13.35 14.7187C13.4625 14.2187 13.5625 13.5812 13.65 12.8062C13.1 13.5187 12.4125 14.075 11.5875 14.475C10.775 14.8625 9.9125 15.0562 9 15.0562C7.6 15.0562 6.375 15.0062 5.325 14.9062C4.2875 14.7937 3.175 14.5562 1.9875 14.1937V13.0125C2.3875 13.1625 2.83125 13.2875 3.31875 13.3875C3.80625 13.475 4.4375 13.5625 5.2125 13.65C4.525 13.1375 3.975 12.4687 3.5625 11.6437C3.15 10.8187 2.94375 9.9375 2.94375 9C2.94375 7.9125 2.99375 6.79375 3.09375 5.64375C3.20625 4.48125 3.44375 3.2625 3.80625 1.9875H4.96875C4.84375 2.5125 4.73125 3.01875 4.63125 3.50625C4.53125 3.99375 4.44375 4.55625 4.36875 5.19375C4.89375 4.49375 5.5625 3.94375 6.375 3.54375C7.1875 3.14375 8.0625 2.94375 9 2.94375C10.3125 2.94375 11.5063 3 12.5813 3.1125C13.6688 3.2125 14.8125 3.44375 16.0125 3.80625V4.96875C15.5375 4.83125 15.0375 4.7125 14.5125 4.6125C13.9875 4.5 13.425 4.4125 12.825 4.35C13.55 4.925 14.1 5.61875 14.475 6.43125C14.8625 7.24375 15.0563 8.1 15.0563 9C15.0563 10.3125 14.9938 11.5187 14.8688 12.6187C14.7438 13.7062 14.5125 14.8375 14.175 16.0125H13.0125ZM9 13.9687C10.3875 13.9687 11.5625 13.4875 12.525 12.525C13.4875 11.5625 13.9688 10.3875 13.9688 9C13.9688 7.6125 13.4875 6.4375 12.525 5.475C11.5625 4.5125 10.3875 4.03125 9 4.03125C7.625 4.03125 6.45 4.5125 5.475 5.475C4.5125 6.4375 4.03125 7.6125 4.03125 9C4.03125 10.375 4.5125 11.55 5.475 12.525C6.4375 13.4875 7.6125 13.9687 9 13.9687Z" fill="white" />
</g>
<defs>
<clipPath id="clip0_4005_575">
<rect width="18" height="18" fill="white" />
</clipPath>
</defs>
</svg>