<svg xmlns="http://www.w3.org/2000/svg" width="100.0" height="100.0" viewBox="0.0 0.0 100.0 100.0" fill="none">
<rect width="100" height="100" fill="#19191A" />
<rect width="100" height="100" fill="url(#paint0_linear_4005_672)" fill-opacity="0.2" />
<path d="M53.5 32.5H32.5V67.5H67.5V46.5H71V67.5C71 68.4333 70.6502 69.2502 69.9502 69.9502C69.2502 70.6502 68.4333 71 67.5 71H32.5C31.5667 71 30.7498 70.6502 30.0498 69.9502C29.3498 69.2502 29 68.4333 29 67.5V32.5C29 31.5667 29.3498 30.7498 30.0498 30.0498C30.7498 29.3498 31.5667 29 32.5 29H53.5V32.5ZM64.292 61.8418H35.7666L42.5918 52.9746L48.0166 60.3838L55.7168 50.4082L64.292 61.8418ZM63 26C63.2307 26 63.431 26.158 63.4873 26.3818C63.6599 27.0663 63.885 27.7343 64.165 28.3838C64.8947 30.0786 65.896 31.562 67.167 32.833C68.4386 34.104 69.9214 35.1053 71.6162 35.835C72.2663 36.115 72.9337 36.3401 73.6182 36.5127C73.842 36.569 74 36.7693 74 37C74 37.2307 73.842 37.431 73.6182 37.4873C72.9337 37.6599 72.2657 37.885 71.6162 38.165C69.9214 38.8947 68.438 39.896 67.167 41.167C65.896 42.4386 64.8947 43.9214 64.165 45.6162C63.885 46.2663 63.6599 46.9337 63.4873 47.6182C63.431 47.842 63.2307 48 63 48C62.7693 48 62.569 47.842 62.5127 47.6182C62.3401 46.9337 62.115 46.2657 61.835 45.6162C61.1053 43.9214 60.1046 42.438 58.833 41.167C57.5614 39.896 56.0786 38.8947 54.3838 38.165C53.7337 37.885 53.0663 37.6599 52.3818 37.4873C52.158 37.431 52 37.2307 52 37C52 36.7693 52.158 36.569 52.3818 36.5127C53.0663 36.3401 53.7343 36.115 54.3838 35.835C56.0786 35.1053 57.562 34.104 58.833 32.833C60.104 31.562 61.1053 30.0786 61.835 28.3838C62.115 27.7337 62.3401 27.0663 62.5127 26.3818C62.569 26.158 62.7693 26 63 26Z" fill="url(#paint1_linear_4005_672)" />
<defs>
<linearGradient id="paint0_linear_4005_672" x1="50" y1="0" x2="50" y2="100" gradientUnits="userSpaceOnUse">
<stop stop-color="#19191A" stop-opacity="0" />
<stop offset="1" stop-color="#0056CF" />
</linearGradient>
<linearGradient id="paint1_linear_4005_672" x1="43.0051" y1="55.0874" x2="63.3615" y2="37.9248" gradientUnits="userSpaceOnUse">
<stop stop-color="#346BF1" />
<stop offset="0.371606" stop-color="#3186FF" />
<stop offset="0.776981" stop-color="#4FA0FF" />
</linearGradient>
</defs>
</svg>