<svg xmlns="http://www.w3.org/2000/svg" width="100.0" height="100.0" viewBox="0.0 0.0 100.0 100.0" fill="none">
<rect width="100" height="100" fill="#19191A" />
<rect width="100" height="100" fill="url(#paint0_linear_4005_658)" fill-opacity="0.2" />
<path d="M50.2637 26.0186L50.6191 26.0234C56.8186 26.1804 62.4334 28.6899 66.6045 32.6924V24.4346H67.1309V32.8682H75.5664V33.3955H67.3066C71.386 37.6461 73.9141 43.3958 73.9824 49.7363H84V50.2637H73.9824C73.9142 56.6042 71.386 62.3538 67.3066 66.6045H75.5664V67.1318H67.1309V75.5664H66.6045V67.3066C62.3538 71.3858 56.6041 73.9123 50.2637 73.9805V84H49.7373V73.9805L49.3818 73.9766C43.1816 73.8196 37.5667 71.3091 33.3955 67.3057V75.5664H32.8682V67.1318H24.4346V66.6045H32.6943C28.615 62.3538 26.0868 56.6042 26.0186 50.2637H16V49.7363H26.0186C26.0869 43.3958 28.615 37.6461 32.6943 33.3955H24.4346V32.8682H32.8682V24.4346H33.3955V32.6934C37.6462 28.6139 43.3966 26.0867 49.7373 26.0186V16H50.2637V26.0186ZM33.9795 67.1318C38.1131 70.999 43.646 73.3862 49.7373 73.4531V70.3877C49.5718 69.2779 49.3282 68.1927 49.0059 67.1318H33.9795ZM50.9639 67.1318C50.6571 68.1743 50.4238 69.2403 50.2637 70.3301V73.4531C56.355 73.3862 61.8879 70.999 66.0215 67.1318H50.9639ZM33.3955 66.5674C33.4077 66.5796 33.4194 66.5923 33.4316 66.6045H48.8379C48.617 65.9369 48.366 65.2787 48.082 64.6309C46.8429 61.7128 45.1439 59.1742 42.9854 57.0156C40.8268 54.8571 38.2882 53.1581 35.3701 51.9189C34.7219 51.6348 34.0634 51.3831 33.3955 51.1621V66.5674ZM56.7549 57.2812C54.7185 59.3817 53.0865 61.8315 51.8594 64.6309C51.5843 65.2787 51.341 65.9369 51.127 66.6045H66.0771L56.7549 57.2812ZM66.6045 51.1621C65.9369 51.3831 65.2787 51.6349 64.6309 51.9189C61.7618 53.1373 59.2599 54.8001 57.125 56.9072L66.6045 66.3857V51.1621ZM70.3818 50.2637C69.2738 50.4292 68.1901 50.6723 67.1309 50.9941V66.0225C70.9988 61.8888 73.387 56.3555 73.4541 50.2637H70.3818ZM26.5459 50.2637C26.613 56.3545 29.0014 61.8871 32.8682 66.0205V50.9932C31.8096 50.6716 30.7265 50.4291 29.6191 50.2637H26.5459ZM49.9717 36.3135C48.6352 39.421 46.803 42.1482 44.4756 44.4756C42.1478 46.8033 39.4215 48.6539 36.3145 50.0293C39.4218 51.3658 42.1483 53.1972 44.4756 55.5244C46.803 57.8518 48.6352 60.579 49.9717 63.6865C51.3472 60.5794 53.1976 57.8522 55.5254 55.5244C57.8527 53.1972 60.5792 51.3658 63.6865 50.0293C60.5795 48.6539 57.8531 46.8033 55.5254 44.4756C53.1975 42.1477 51.3472 39.4207 49.9717 36.3135ZM32.8682 33.9785C29.0011 38.112 26.613 43.6452 26.5459 49.7363H29.6768C30.7641 49.5762 31.8279 49.3432 32.8682 49.0371V33.9785ZM67.1309 49.0361C68.1718 49.3426 69.2361 49.5761 70.3242 49.7363H73.4541C73.387 43.6442 70.9991 38.1103 67.1309 33.9766V49.0361ZM33.3955 48.874C34.0634 48.6599 34.722 48.4168 35.3701 48.1416C38.1695 46.9145 40.6174 45.2806 42.7178 43.2441L33.3955 33.9219V48.874ZM51.127 33.3955C51.341 34.0631 51.5843 34.7212 51.8594 35.3691C53.1385 38.2871 54.8572 40.8258 57.0156 42.9844C59.1742 45.143 61.7128 46.8624 64.6309 48.1416C65.2786 48.4167 65.937 48.659 66.6045 48.873V33.4307C66.5928 33.4189 66.5811 33.4072 66.5693 33.3955H51.127ZM43.0928 42.874C45.1997 40.7392 46.8637 38.238 48.082 35.3691C48.366 34.7213 48.617 34.0631 48.8379 33.3955H33.6143L43.0928 42.874ZM49.7373 26.5459C43.6463 26.6129 38.114 29.0013 33.9805 32.8682H49.0059C49.3282 31.807 49.5718 30.7215 49.7373 29.6113V26.5459ZM50.2637 29.6699C50.4238 30.7597 50.6571 31.8257 50.9639 32.8682H66.0205C61.887 29.0013 56.3547 26.6129 50.2637 26.5459V29.6699Z" fill="url(#paint1_linear_4005_658)" />
<defs>
<linearGradient id="paint0_linear_4005_658" x1="50" y1="0" x2="50" y2="100" gradientUnits="userSpaceOnUse">
<stop stop-color="#19191A" stop-opacity="0" />
<stop offset="1" stop-color="#0056CF" />
</linearGradient>
<linearGradient id="paint1_linear_4005_658" x1="37.1632" y1="59.9543" x2="67.924" y2="34.0197" gradientUnits="userSpaceOnUse">
<stop stop-color="#346BF1" />
<stop offset="0.371606" stop-color="#3186FF" />
<stop offset="0.776981" stop-color="#4FA0FF" />
</linearGradient>
</defs>
</svg>