<svg xmlns="http://www.w3.org/2000/svg" width="100.0" height="100.0" viewBox="0.0 0.0 100.0 100.0" fill="none">
<rect width="100" height="100" fill="#19191A" />
<rect width="100" height="100" fill="url(#paint0_linear_4005_676)" fill-opacity="0.2" />
<path d="M68.667 52.333L31.333 73.333V31.2754L68.667 52.333ZM34.833 67.3252L61.5498 52.333L34.833 37.2832V67.3252ZM65.083 25C65.2927 25 65.4752 25.1432 65.5264 25.3467C65.6832 25.9691 65.8879 26.5764 66.1426 27.167C66.8059 28.7077 67.7157 30.0565 68.8711 31.2119C70.0271 32.3673 71.3753 33.2771 72.916 33.9404C73.5071 34.1951 74.114 34.3998 74.7363 34.5566C74.9398 34.6078 75.083 34.7903 75.083 35C75.083 35.2097 74.9398 35.3922 74.7363 35.4434C74.114 35.6002 73.5066 35.8049 72.916 36.0596C71.3753 36.7229 70.0265 37.6327 68.8711 38.7881C67.7157 39.9441 66.8059 41.2923 66.1426 42.833C65.8879 43.4241 65.6832 44.0309 65.5264 44.6533C65.4752 44.8568 65.2927 45 65.083 45C64.8733 45 64.6908 44.8568 64.6396 44.6533C64.4828 44.0309 64.2781 43.4235 64.0234 42.833C63.3602 41.2923 62.4509 39.9435 61.2949 38.7881C60.1389 37.6327 58.7907 36.7229 57.25 36.0596C56.6589 35.8049 56.0521 35.6002 55.4297 35.4434C55.2262 35.3922 55.083 35.2097 55.083 35C55.083 34.7903 55.2262 34.6078 55.4297 34.5566C56.0521 34.3998 56.6595 34.1951 57.25 33.9404C58.7907 33.2771 60.1395 32.3673 61.2949 31.2119C62.4503 30.0565 63.3602 28.7077 64.0234 27.167C64.2781 26.5759 64.4828 25.9691 64.6396 25.3467C64.6908 25.1432 64.8733 25 65.083 25Z" fill="url(#paint1_linear_4005_676)" />
<defs>
<linearGradient id="paint0_linear_4005_676" x1="50" y1="0" x2="50" y2="100" gradientUnits="userSpaceOnUse">
<stop stop-color="#19191A" stop-opacity="0" />
<stop offset="1" stop-color="#0056CF" />
</linearGradient>
<linearGradient id="paint1_linear_4005_676" x1="44.949" y1="56.2418" x2="66.346" y2="39.9125" gradientUnits="userSpaceOnUse">
<stop stop-color="#346BF1" />
<stop offset="0.371606" stop-color="#3186FF" />
<stop offset="0.776981" stop-color="#4FA0FF" />
</linearGradient>
</defs>
</svg>